<svg width="25" height="25" viewBox="0 0 25 25" fill="none" xmlns="http://www.w3.org/2000/svg">
<path d="M7.39996 14.3373C9.16245 14.3373 10.5749 15.7636 10.5749 17.5386V21.7999C10.5749 23.5625 9.16245 25 7.39996 25H3.17498C1.42499 25 0 23.5625 0 21.7999V17.5386C0 15.7636 1.42499 14.3373 3.17498 14.3373H7.39996ZM21.825 14.3373C23.575 14.3373 25 15.7636 25 17.5386V21.7999C25 23.5625 23.575 25 21.825 25H17.6C15.8375 25 14.4251 23.5625 14.4251 21.7999V17.5386C14.4251 15.7636 15.8375 14.3373 17.6 14.3373H21.825ZM7.39996 0C9.16245 0 10.5749 1.43752 10.5749 3.2013V7.46261C10.5749 9.23764 9.16245 10.6627 7.39996 10.6627H3.17498C1.42499 10.6627 0 9.23764 0 7.46261V3.2013C0 1.43752 1.42499 0 3.17498 0H7.39996ZM21.825 0C23.575 0 25 1.43752 25 3.2013V7.46261C25 9.23764 23.575 10.6627 21.825 10.6627H17.6C15.8375 10.6627 14.4251 9.23764 14.4251 7.46261V3.2013C14.4251 1.43752 15.8375 0 17.6 0H21.825Z" fill="#8396FF"/>
</svg>
