<svg width="24" height="24" viewBox="0 0 24 24" fill="none" xmlns="http://www.w3.org/2000/svg">
<path d="M12 2C6.47715 2 2 6.47715 2 12C2 17.5229 6.47715 22 12 22C17.5229 22 22 17.5229 22 12C21.994 6.47961 17.5204 2.00598 12 2ZM15.3333 14.1558C15.672 14.4675 15.6938 14.9947 15.3821 15.3333C15.0705 15.672 14.5433 15.6938 14.2046 15.3821C14.1877 15.3666 14.1714 15.3503 14.1558 15.3333L12 13.1783L9.845 15.3333C9.51395 15.653 8.98641 15.6439 8.66668 15.3128C8.3548 14.9899 8.3548 14.4779 8.66668 14.155L10.8217 12L8.66668 9.845C8.34695 9.51395 8.35613 8.98641 8.68719 8.66668C9.01012 8.3548 9.52207 8.3548 9.845 8.66668L12 10.8217L14.1558 8.66668C14.4675 8.32805 14.9947 8.30617 15.3333 8.61785C15.672 8.92953 15.6938 9.45672 15.3821 9.79535C15.3666 9.8123 15.3503 9.82855 15.3333 9.84418L13.1783 12L15.3333 14.1558Z" fill="#8396FF"/>
</svg>
