<svg width="24" height="24" viewBox="0 0 24 24" fill="none" xmlns="http://www.w3.org/2000/svg">
<path d="M21.389 9.79048C20.097 7.62804 17.1581 4 12 4C6.84191 4 3.903 7.62804 2.61098 9.79048C2.21157 10.4544 2 11.2195 2 12C2 12.7805 2.21157 13.5456 2.61098 14.2095C3.903 16.372 6.84191 20 12 20C17.1581 20 20.097 16.372 21.389 14.2095C21.7884 13.5456 22 12.7805 22 12C22 11.2195 21.7884 10.4544 21.389 9.79048V9.79048ZM19.9687 13.3132C18.8591 15.1675 16.3476 18.2879 12 18.2879C7.65244 18.2879 5.14087 15.1675 4.03129 13.3132C3.79399 12.9186 3.6683 12.4639 3.6683 12C3.6683 11.5361 3.79399 11.0814 4.03129 10.6868C5.14087 8.83253 7.65244 5.71215 12 5.71215C16.3476 5.71215 18.8591 8.82911 19.9687 10.6868C20.206 11.0814 20.3317 11.5361 20.3317 12C20.3317 12.4639 20.206 12.9186 19.9687 13.3132V13.3132Z" fill="black"/>
<path d="M12 8C11.2089 8 10.4355 8.2346 9.77772 8.67412C9.11992 9.11365 8.60723 9.73836 8.30448 10.4693C8.00173 11.2002 7.92252 12.0044 8.07686 12.7804C8.2312 13.5563 8.61216 14.269 9.17157 14.8284C9.73098 15.3878 10.4437 15.7688 11.2196 15.9231C11.9956 16.0775 12.7998 15.9983 13.5307 15.6955C14.2616 15.3928 14.8864 14.8801 15.3259 14.2223C15.7654 13.5645 16 12.7911 16 12C15.9987 10.9395 15.5769 9.92285 14.827 9.17298C14.0772 8.42311 13.0605 8.00127 12 8V8ZM12 14.4C11.5253 14.4 11.0613 14.2592 10.6666 13.9955C10.272 13.7318 9.96434 13.357 9.78269 12.9184C9.60104 12.4799 9.55351 11.9973 9.64612 11.5318C9.73872 11.0662 9.9673 10.6386 10.3029 10.3029C10.6386 9.9673 11.0662 9.73872 11.5318 9.64611C11.9973 9.55351 12.4799 9.60104 12.9184 9.78269C13.357 9.96434 13.7318 10.272 13.9955 10.6666C14.2592 11.0613 14.4 11.5253 14.4 12C14.4 12.6365 14.1471 13.247 13.6971 13.6971C13.247 14.1471 12.6365 14.4 12 14.4Z" fill="black"/>
</svg>
