<svg width="24" height="24" viewBox="0 0 24 24" fill="none" xmlns="http://www.w3.org/2000/svg">
<path d="M17.8333 2H6.16667C5.062 2.00132 4.00296 2.44073 3.22185 3.22185C2.44073 4.00296 2.00132 5.062 2 6.16667L2 17.8333C2.00132 18.938 2.44073 19.997 3.22185 20.7782C4.00296 21.5593 5.062 21.9987 6.16667 22H17.8333C18.938 21.9987 19.997 21.5593 20.7782 20.7782C21.5593 19.997 21.9987 18.938 22 17.8333V6.16667C21.9987 5.062 21.5593 4.00296 20.7782 3.22185C19.997 2.44073 18.938 2.00132 17.8333 2V2ZM6.16667 3.66667H17.8333C18.4964 3.66667 19.1323 3.93006 19.6011 4.3989C20.0699 4.86774 20.3333 5.50363 20.3333 6.16667V17.8333C20.3319 18.2046 20.2464 18.5707 20.0833 18.9042L12.4475 11.2683C12.0606 10.8813 11.6012 10.5743 11.0956 10.3648C10.59 10.1554 10.0481 10.0476 9.50083 10.0476C8.95357 10.0476 8.41166 10.1554 7.90607 10.3648C7.40047 10.5743 6.94109 10.8813 6.55417 11.2683L3.66667 14.155V6.16667C3.66667 5.50363 3.93006 4.86774 4.3989 4.3989C4.86774 3.93006 5.50363 3.66667 6.16667 3.66667V3.66667ZM6.16667 20.3333C5.50363 20.3333 4.86774 20.0699 4.3989 19.6011C3.93006 19.1323 3.66667 18.4964 3.66667 17.8333V16.5117L7.73167 12.4467C7.96383 12.2144 8.2395 12.0301 8.54292 11.9043C8.84634 11.7786 9.17156 11.7139 9.5 11.7139C9.82844 11.7139 10.1537 11.7786 10.4571 11.9043C10.7605 12.0301 11.0362 12.2144 11.2683 12.4467L18.9042 20.0833C18.5707 20.2464 18.2046 20.3319 17.8333 20.3333H6.16667Z" fill="black"/>
<path d="M15 11C15.5933 11 16.1734 10.8241 16.6667 10.4944C17.1601 10.1648 17.5446 9.69623 17.7716 9.14805C17.9987 8.59987 18.0581 7.99667 17.9424 7.41473C17.8266 6.83279 17.5409 6.29824 17.1213 5.87868C16.7018 5.45912 16.1672 5.1734 15.5853 5.05765C15.0033 4.94189 14.4001 5.0013 13.8519 5.22836C13.3038 5.45543 12.8352 5.83994 12.5056 6.33329C12.1759 6.82664 12 7.40666 12 8C12 8.79565 12.3161 9.55871 12.8787 10.1213C13.4413 10.6839 14.2044 11 15 11V11ZM15 6.71429C15.2543 6.71429 15.5029 6.78969 15.7143 6.93097C15.9257 7.07224 16.0905 7.27305 16.1878 7.50798C16.2852 7.74291 16.3106 8.00143 16.261 8.25083C16.2114 8.50024 16.0889 8.72933 15.9091 8.90914C15.7293 9.08895 15.5002 9.2114 15.2508 9.26101C15.0014 9.31062 14.7429 9.28516 14.508 9.18785C14.273 9.09053 14.0722 8.92574 13.931 8.71431C13.7897 8.50287 13.7143 8.25429 13.7143 8C13.7143 7.65901 13.8497 7.33198 14.0909 7.09086C14.332 6.84975 14.659 6.71429 15 6.71429V6.71429Z" fill="black"/>
</svg>
