<svg width="25" height="31" viewBox="0 0 25 31" fill="none" xmlns="http://www.w3.org/2000/svg">
<path d="M12.5 8.20832C11.5852 8.20832 10.691 8.50768 9.93045 9.06853C9.16987 9.62938 8.57707 10.4265 8.22702 11.3592C7.87696 12.2919 7.78537 13.3181 7.96383 14.3083C8.14229 15.2984 8.58278 16.2078 9.22959 16.9217C9.87641 17.6355 10.7005 18.1216 11.5977 18.3186C12.4948 18.5155 13.4248 18.4144 14.2699 18.0281C15.115 17.6418 15.8373 16.9876 16.3455 16.1482C16.8537 15.3088 17.125 14.322 17.125 13.3125C17.125 11.9588 16.6377 10.6605 15.7703 9.7033C14.903 8.74608 13.7266 8.20832 12.5 8.20832ZM12.5 15.8646C12.0426 15.8646 11.5955 15.7149 11.2152 15.4345C10.8349 15.154 10.5385 14.7555 10.3635 14.2891C10.1885 13.8228 10.1427 13.3097 10.2319 12.8146C10.3211 12.3195 10.5414 11.8648 10.8648 11.5079C11.1882 11.151 11.6002 10.9079 12.0488 10.8094C12.4974 10.711 12.9624 10.7615 13.3849 10.9547C13.8075 11.1478 14.1686 11.4749 14.4227 11.8946C14.6768 12.3143 14.8125 12.8077 14.8125 13.3125C14.8125 13.9893 14.5688 14.6385 14.1351 15.1171C13.7015 15.5957 13.1133 15.8646 12.5 15.8646Z" fill="#DEDEDE"/>
<path d="M12.5 30.0832C11.4671 30.0885 10.448 29.8485 9.52802 29.3834C8.60802 28.9182 7.8139 28.2415 7.21214 27.4099C2.53762 21.0217 0.166626 16.2193 0.166626 13.1352C0.166626 9.89466 1.46603 6.78682 3.77898 4.49539C6.09192 2.20397 9.22896 0.916656 12.5 0.916656C15.771 0.916656 18.908 2.20397 21.2209 4.49539C23.5339 6.78682 24.8333 9.89466 24.8333 13.1352C24.8333 16.2193 22.4623 21.0217 17.7878 27.4099C17.186 28.2415 16.3919 28.9182 15.4719 29.3834C14.5519 29.8485 13.5328 30.0885 12.5 30.0832ZM12.5 3.56938C9.93936 3.57227 7.48447 4.58129 5.67384 6.37506C3.86322 8.16883 2.84473 10.6009 2.84181 13.1377C2.84181 15.5801 5.16374 20.0969 9.37829 25.8557C9.73608 26.3439 10.2055 26.7413 10.748 27.0153C11.2906 27.2893 11.891 27.4321 12.5 27.4321C13.109 27.4321 13.7093 27.2893 14.2519 27.0153C14.7945 26.7413 15.2638 26.3439 15.6216 25.8557C19.8362 20.0969 22.1581 15.5801 22.1581 13.1377C22.1552 10.6009 21.1367 8.16883 19.3261 6.37506C17.5155 4.58129 15.0606 3.57227 12.5 3.56938Z" fill="#DEDEDE"/>
</svg>
