<svg width="27" height="43" viewBox="0 0 27 43" fill="none" xmlns="http://www.w3.org/2000/svg">
<g clip-path="url(#clip0_34_547)">
<g filter="url(#filter0_f_34_547)">
<ellipse cx="13.5" cy="39.5" rx="4.5" ry="2.5" fill="black" fill-opacity="0.12"/>
</g>
<mask id="path-2-outside-1_34_547" maskUnits="userSpaceOnUse" x="0" y="0" width="27" height="40" fill="black">
<rect fill="white" width="27" height="40"/>
<path d="M13.5 1C20.4036 1 26 6.59644 26 13.5C26 16.3142 25.0694 18.9108 23.5 21C21 24.5 14.5 29 14.5 38C14.5 38.5523 14.0523 39 13.5 39C12.9477 39 12.5 38.5523 12.5 38C12.5 29 6 24.5 3.5 21C1.93058 18.9108 1 16.3142 1 13.5C1 6.59644 6.59644 1 13.5 1Z"/>
</mask>
<path d="M13.5 1C20.4036 1 26 6.59644 26 13.5C26 16.3142 25.0694 18.9108 23.5 21C21 24.5 14.5 29 14.5 38C14.5 38.5523 14.0523 39 13.5 39C12.9477 39 12.5 38.5523 12.5 38C12.5 29 6 24.5 3.5 21C1.93058 18.9108 1 16.3142 1 13.5C1 6.59644 6.59644 1 13.5 1Z" fill="#EA352B"/>
<path d="M23.5 21L22.7005 20.3994L22.6932 20.409L22.6863 20.4188L23.5 21ZM3.5 21L4.31373 20.4188L4.30675 20.409L4.29954 20.3994L3.5 21ZM13.5 1V2C19.8513 2 25 7.14873 25 13.5H26H27C27 6.04416 20.9558 0 13.5 0V1ZM26 13.5H25C25 16.09 24.1444 18.4772 22.7005 20.3994L23.5 21L24.2995 21.6006C25.9945 19.3443 27 16.5384 27 13.5H26ZM23.5 21L22.6863 20.4188C22.1049 21.2326 21.2826 22.115 20.2999 23.1937C19.3366 24.2509 18.2561 25.4589 17.2513 26.8527C15.2296 29.6571 13.5 33.2327 13.5 38H14.5H15.5C15.5 33.7673 17.0204 30.5929 18.8737 28.0223C19.8064 26.7286 20.8196 25.5928 21.7783 24.5407C22.7174 23.51 23.6451 22.5174 24.3137 21.5812L23.5 21ZM14.5 38H13.5V39V40C14.6046 40 15.5 39.1046 15.5 38H14.5ZM13.5 39V38H12.5H11.5C11.5 39.1046 12.3954 40 13.5 40V39ZM12.5 38H13.5C13.5 33.2327 11.7704 29.6571 9.74868 26.8527C8.74386 25.4589 7.66338 24.2509 6.70013 23.1937C5.71736 22.115 4.89508 21.2326 4.31373 20.4188L3.5 21L2.68627 21.5812C3.35492 22.5174 4.28264 23.51 5.22174 24.5407C6.18037 25.5928 7.19364 26.7286 8.12632 28.0223C9.97955 30.5929 11.5 33.7673 11.5 38H12.5ZM3.5 21L4.29954 20.3994C2.85563 18.4772 2 16.09 2 13.5H1H0C0 16.5384 1.00553 19.3443 2.70046 21.6006L3.5 21ZM1 13.5H2C2 7.14873 7.14873 2 13.5 2V1V0C6.04416 0 0 6.04416 0 13.5H1Z" fill="url(#paint0_linear_34_547)" mask="url(#path-2-outside-1_34_547)"/>
<circle cx="13.5" cy="13.5" r="4.5" fill="black" fill-opacity="0.4"/>
</g>
<defs>
<filter id="filter0_f_34_547" x="7" y="35" width="13" height="9" filterUnits="userSpaceOnUse" color-interpolation-filters="sRGB">
<feFlood flood-opacity="0" result="BackgroundImageFix"/>
<feBlend mode="normal" in="SourceGraphic" in2="BackgroundImageFix" result="shape"/>
<feGaussianBlur stdDeviation="1" result="effect1_foregroundBlur_34_547"/>
</filter>
<linearGradient id="paint0_linear_34_547" x1="13.5" y1="1" x2="13.5" y2="39" gradientUnits="userSpaceOnUse">
<stop stop-color="white"/>
<stop offset="1" stop-color="white" stop-opacity="0.35"/>
</linearGradient>
<clipPath id="clip0_34_547">
<rect width="27" height="43" fill="white"/>
</clipPath>
</defs>
</svg>
