<svg width="28" height="28" viewBox="0 0 28 28" fill="none" xmlns="http://www.w3.org/2000/svg">
<path d="M12.75 3.99998H4C3.33696 3.99998 2.70107 4.26337 2.23223 4.73221C1.76339 5.20105 1.5 5.83694 1.5 6.49998V24C1.5 24.663 1.76339 25.2989 2.23223 25.7677C2.70107 26.2366 3.33696 26.5 4 26.5H21.5C22.163 26.5 22.7989 26.2366 23.2678 25.7677C23.7366 25.2989 24 24.663 24 24V15.25M22.125 2.12498C22.6223 1.6277 23.2967 1.34833 24 1.34833C24.7033 1.34833 25.3777 1.6277 25.875 2.12498C26.3723 2.62226 26.6517 3.29672 26.6517 3.99998C26.6517 4.70324 26.3723 5.3777 25.875 5.87498L14 17.75L9 19L10.25 14L22.125 2.12498Z" stroke="#DEDEDE" stroke-width="2" stroke-linecap="round" stroke-linejoin="round"/>
</svg>
