<svg width="24" height="24" viewBox="0 0 24 24" fill="none" xmlns="http://www.w3.org/2000/svg">
<g clip-path="url(#clip0_34_567)">
<path d="M9.06797 16.3474L13.968 21.2474L14.675 20.5404C15.6523 19.5597 16.3575 18.3416 16.7214 17.0057C17.0852 15.6698 17.095 14.2623 16.75 12.9214L16.504 11.9214L18.59 9.83544L18.807 10.0524C19.3123 10.5703 19.9835 10.8942 20.7034 10.9673C21.4232 11.0404 22.1459 10.8582 22.745 10.4524C23.1001 10.1994 23.3958 9.872 23.6115 9.49302C23.8271 9.11405 23.9576 8.69261 23.9938 8.25807C24.0299 7.82353 23.9709 7.38632 23.8209 6.97691C23.6709 6.56749 23.4334 6.1957 23.125 5.88744L18.2 0.954436C17.6947 0.436536 17.0234 0.11272 16.3036 0.0396015C15.5837 -0.0335172 14.8611 0.148714 14.262 0.554436C13.9069 0.807469 13.6112 1.13487 13.3955 1.51385C13.1798 1.89282 13.0494 2.31426 13.0132 2.7488C12.977 3.18334 13.036 3.62055 13.186 4.02996C13.3361 4.43938 13.5736 4.81117 13.882 5.11944L14.175 5.41244L12.085 7.50044L11.1 7.25844C9.75685 6.91065 8.34629 6.91883 7.00729 7.28216C5.6683 7.6455 4.44707 8.35144 3.46397 9.33044L2.75697 10.0374L7.65697 14.9324L0.292969 22.2934L1.70697 23.7074L9.06797 16.3474ZM10.607 9.20044L12.707 9.71444L17.007 5.41444L15.293 3.70744C15.1894 3.60414 15.1098 3.47939 15.0597 3.34197C15.0096 3.20456 14.9903 3.05783 15.0031 2.91214C15.0158 2.76644 15.0604 2.62532 15.1337 2.49872C15.2069 2.37212 15.307 2.26313 15.427 2.17944C15.6403 2.05026 15.8917 1.99862 16.1388 2.03324C16.3858 2.06785 16.6133 2.18659 16.783 2.36944L21.707 7.29344C21.8105 7.39673 21.8901 7.52149 21.9402 7.6589C21.9903 7.79631 22.0097 7.94304 21.9969 8.08873C21.9841 8.23443 21.9395 8.37555 21.8663 8.50215C21.793 8.62875 21.6929 8.73774 21.573 8.82144C21.3596 8.95061 21.1082 9.00225 20.8612 8.96764C20.6142 8.93302 20.3866 8.81428 20.217 8.63144L18.586 7.00044L14.286 11.3004L14.804 13.4114C15.0222 14.2517 15.0547 15.1295 14.8993 15.9837C14.7438 16.8378 14.4042 17.6479 13.904 18.3574L5.64597 10.1004C6.35765 9.5986 7.17025 9.25808 8.02709 9.10263C8.88393 8.94719 9.76436 8.98057 10.607 9.20044Z" fill="black"/>
</g>
<defs>
<clipPath id="clip0_34_567">
<rect width="24" height="24" fill="white"/>
</clipPath>
</defs>
</svg>
