<svg width="26" height="26" viewBox="0 0 26 26" fill="none" xmlns="http://www.w3.org/2000/svg">
<path d="M13.9815 0C15.0163 0 15.9533 0.546 16.4707 1.352C16.7225 1.742 16.8903 2.223 16.8483 2.73C16.8204 3.12 16.9462 3.51 17.17 3.874C17.8832 4.979 19.4635 5.395 20.6941 4.771C22.0786 4.017 23.8267 4.472 24.6238 5.759L25.5608 7.293C26.3719 8.58 25.9244 10.231 24.5259 10.972C23.3372 11.635 22.9177 13.104 23.6309 14.222C23.8547 14.573 24.1064 14.872 24.4979 15.054C24.9874 15.301 25.365 15.691 25.6307 16.081C26.1481 16.887 26.1062 17.875 25.6027 18.746L24.6238 20.306C24.1064 21.138 23.1414 21.658 22.1485 21.658C21.6591 21.658 21.1137 21.528 20.6661 21.268C20.3025 21.047 19.883 20.969 19.4355 20.969C18.051 20.969 16.8903 22.048 16.8483 23.335C16.8483 24.83 15.5617 26 13.9535 26H12.0516C10.4294 26 9.14277 24.83 9.14277 23.335C9.1148 22.048 7.95407 20.969 6.56959 20.969C6.10809 20.969 5.68855 21.047 5.33893 21.268C4.89143 21.528 4.33204 21.658 3.85656 21.658C2.84966 21.658 1.88472 21.138 1.36729 20.306L0.402343 18.746C-0.11509 17.901 -0.14306 16.887 0.374374 16.081C0.598128 15.691 1.01767 15.301 1.49315 15.054C1.88472 14.872 2.13644 14.573 2.37418 14.222C3.07342 13.104 2.65388 11.635 1.46518 10.972C0.0806952 10.231 -0.366814 8.58 0.430312 7.293L1.36729 5.759C2.1784 4.472 3.9125 4.017 5.31097 4.771C6.52763 5.395 8.1079 4.979 8.82112 3.874C9.04488 3.51 9.17074 3.12 9.14277 2.73C9.1148 2.223 9.26863 1.742 9.53434 1.352C10.0518 0.546 10.9887 0.026 12.0096 0H13.9815ZM13.0165 9.334C10.8209 9.334 9.04487 10.972 9.04487 13.013C9.04487 15.054 10.8209 16.679 13.0165 16.679C15.2121 16.679 16.9462 15.054 16.9462 13.013C16.9462 10.972 15.2121 9.334 13.0165 9.334Z" fill="#2D3F6C"/>
</svg>
